<svg width="34" height="34" viewBox="0 0 34 34" fill="none" xmlns="http://www.w3.org/2000/svg">
<path d="M30.4594 15.743V30.9934C30.4594 32.097 29.6123 33 28.5771 33H4.48294C3.44764 33 2.60059 32.097 2.60059 30.9934V15.743" stroke="white" stroke-width="2" stroke-miterlimit="10" stroke-linecap="round" stroke-linejoin="round"/>
<path d="M32.0588 14.3383V8.51906C32.0588 7.81674 31.6824 7.21475 31.1176 7.21475H1.94118C1.37647 7.21475 1 7.81674 1 8.51906V14.3383C1 15.0406 1.37647 15.6426 1.94118 15.6426H31.1176C31.6824 15.7429 32.0588 15.141 32.0588 14.3383Z" stroke="white" stroke-width="2" stroke-miterlimit="10" stroke-linecap="round" stroke-linejoin="round"/>
<path d="M16.5293 33V7.21475" stroke="white" stroke-width="2" stroke-miterlimit="10" stroke-linecap="round" stroke-linejoin="round"/>
<path d="M16.3418 7.21486C15.8712 6.61287 8.81239 -2.51731 7.11827 2.49927C5.33004 7.81685 16.3418 7.21486 16.3418 7.21486Z" stroke="white" stroke-width="2" stroke-miterlimit="10" stroke-linecap="round" stroke-linejoin="round"/>
<path d="M16.3408 7.21486C16.8114 6.61287 23.8702 -2.51731 25.5644 2.49927C27.2585 7.81685 16.3408 7.21486 16.3408 7.21486Z" stroke="white" stroke-width="2" stroke-miterlimit="10" stroke-linecap="round" stroke-linejoin="round"/>
</svg>
